<svg width="48" height="48" viewBox="0 0 48 48" fill="none" xmlns="http://www.w3.org/2000/svg">
<circle cx="24" cy="24" r="24" fill="#295D66"/>
<path d="M21.2 32.74H26.8C27.8493 32.74 28.7 33.5907 28.7 34.64V40.22H19.3V34.64C19.3 33.5907 20.1506 32.74 21.2 32.74Z" fill="#5C9099" stroke="white" stroke-width="0.2"/>
<path d="M7.76001 30.82H13.36C14.4094 30.82 15.26 31.6707 15.26 32.72V38.3H5.86001V32.72C5.86001 31.6707 6.71067 30.82 7.76001 30.82Z" fill="#5C9099" stroke="white" stroke-width="0.2"/>
<path d="M13.52 23.14H19.12C20.1694 23.14 21.02 23.9906 21.02 25.04V30.62H11.62V25.04C11.62 23.9906 12.4707 23.14 13.52 23.14Z" fill="#5C9099" stroke="white" stroke-width="0.2"/>
<path d="M34.6401 30.82H40.2401C41.2895 30.82 42.1401 31.6707 42.1401 32.72V38.3H32.7401V32.72C32.7401 31.6707 33.5908 30.82 34.6401 30.82Z" fill="#5C9099" stroke="white" stroke-width="0.2"/>
<path d="M28.8801 23.14H34.4801C35.5295 23.14 36.3801 23.9906 36.3801 25.04V30.62H26.9801V25.04C26.9801 23.9906 27.8308 23.14 28.8801 23.14Z" fill="#5C9099" stroke="white" stroke-width="0.2"/>
<circle cx="10.5602" cy="27.84" r="2.78" fill="#5C9099" stroke="white" stroke-width="0.2"/>
<circle cx="16.3199" cy="20.16" r="2.78" fill="#5C9099" stroke="white" stroke-width="0.2"/>
<circle cx="37.4401" cy="27.84" r="2.78" fill="#5C9099" stroke="white" stroke-width="0.2"/>
<circle cx="31.68" cy="20.16" r="2.78" fill="#5C9099" stroke="white" stroke-width="0.2"/>
<circle cx="23.9999" cy="29.76" r="2.78" fill="#5C9099" stroke="white" stroke-width="0.2"/>
<rect x="11.62" y="5.86001" width="24.76" height="11.32" fill="#5C9099" stroke="white" stroke-width="0.2"/>
<rect x="13.4399" y="7.67999" width="7.68" height="0.384" rx="0.192" fill="white"/>
<rect x="13.4399" y="9.59998" width="15.36" height="0.384" rx="0.192" fill="white"/>
<rect x="13.4399" y="11.52" width="15.36" height="0.384" rx="0.192" fill="white"/>
<rect x="13.4399" y="13.44" width="15.36" height="0.384" rx="0.192" fill="white"/>
</svg>
