<svg width="36" height="36" viewBox="0 0 36 36" fill="none" xmlns="http://www.w3.org/2000/svg">
<circle cx="18" cy="18" r="18" fill="#295D66"/>
<path d="M16.3999 24.58H19.5999C20.6492 24.58 21.4999 25.4306 21.4999 26.48V30.14H14.4999V26.48C14.4999 25.4306 15.3506 24.58 16.3999 24.58Z" fill="#5C9099" stroke="white" stroke-width="0.2"/>
<path d="M6.32007 23.14H9.52007C10.5694 23.14 11.4201 23.9907 11.4201 25.04V28.7H4.42007V25.04C4.42007 23.9907 5.27073 23.14 6.32007 23.14Z" fill="#5C9099" stroke="white" stroke-width="0.2"/>
<path d="M10.6401 17.38H13.8401C14.8895 17.38 15.7401 18.2306 15.7401 19.28V22.94H8.74014V19.28C8.74014 18.2306 9.5908 17.38 10.6401 17.38Z" fill="#5C9099" stroke="white" stroke-width="0.2"/>
<path d="M26.48 23.14H29.68C30.7293 23.14 31.58 23.9907 31.58 25.04V28.7H24.58V25.04C24.58 23.9907 25.4306 23.14 26.48 23.14Z" fill="#5C9099" stroke="white" stroke-width="0.2"/>
<path d="M22.1602 17.38H25.3602C26.4095 17.38 27.2602 18.2306 27.2602 19.28V22.94H20.2602V19.28C20.2602 18.2306 21.1108 17.38 22.1602 17.38Z" fill="#5C9099" stroke="white" stroke-width="0.2"/>
<circle cx="7.92025" cy="20.88" r="2.06" fill="#5C9099" stroke="white" stroke-width="0.2"/>
<circle cx="12.2401" cy="15.12" r="2.06" fill="#5C9099" stroke="white" stroke-width="0.2"/>
<circle cx="28.0799" cy="20.88" r="2.06" fill="#5C9099" stroke="white" stroke-width="0.2"/>
<circle cx="23.7601" cy="15.12" r="2.06" fill="#5C9099" stroke="white" stroke-width="0.2"/>
<circle cx="17.9998" cy="22.32" r="2.06" fill="#5C9099" stroke="white" stroke-width="0.2"/>
<rect x="8.74014" y="4.42001" width="18.52" height="8.44" fill="#5C9099" stroke="white" stroke-width="0.2"/>
<rect x="10.0801" y="5.76001" width="5.76" height="0.288" rx="0.144" fill="white"/>
<rect x="10.0801" y="7.19995" width="11.52" height="0.288" rx="0.144" fill="white"/>
<rect x="10.0801" y="8.64001" width="11.52" height="0.288" rx="0.144" fill="white"/>
<rect x="10.0801" y="10.08" width="11.52" height="0.288" rx="0.144" fill="white"/>
</svg>
