<svg width="88" height="64" viewBox="0 0 88 64" fill="none" xmlns="http://www.w3.org/2000/svg">
<rect y="4" width="88" height="59" rx="2" fill="#A3C6CC"/>
<rect y="4" width="88" height="55" rx="2" fill="#CFE2E6"/>
<path d="M43.2936 62.2936L40.7926 59.7926C40.6051 59.6051 40.351 59.5 40.0858 59.5H1.5C0.947714 59.5 0.5 59.0523 0.5 58.5V5.5C0.5 4.94771 0.913237 4.5 1.46552 4.5H86.5113C87.0636 4.5 87.5 4.94772 87.5 5.5V58.5C87.5 59.0523 87.0523 59.5 86.5 59.5H47.9142C47.649 59.5 47.3946 59.6054 47.2071 59.7929L44.7071 62.2929C44.3166 62.6834 43.6842 62.6842 43.2936 62.2936Z" stroke="black"/>
<g filter="url(#filter0_d_10_148)">
<path d="M4 0H39C41.7614 0 44 2.23858 44 5V59H4V0Z" fill="#F7F7F7"/>
</g>
<g filter="url(#filter1_d_10_148)">
<path d="M44 5C44 2.23858 46.2386 0 49 0H84V59H44V5Z" fill="#F7F7F7"/>
</g>
<rect x="9" y="5" width="30" height="1" rx="0.5" fill="#595959"/>
<rect x="49" y="5" width="30" height="1" rx="0.5" fill="#595959"/>
<rect x="49" y="8" width="30" height="1" rx="0.5" fill="#595959"/>
<rect x="49" y="11" width="30" height="1" rx="0.5" fill="#595959"/>
<rect x="49" y="14" width="30" height="1" rx="0.5" fill="#595959"/>
<rect x="49" y="17" width="30" height="1" rx="0.5" fill="#595959"/>
<rect x="9" y="9" width="30" height="1" rx="0.5" fill="#595959"/>
<rect x="9" y="13" width="30" height="1" rx="0.5" fill="#595959"/>
<rect x="9" y="17" width="30" height="1" rx="0.5" fill="#595959"/>
<rect x="9" y="21" width="30" height="1" rx="0.5" fill="#595959"/>
<rect x="9" y="25" width="30" height="1" rx="0.5" fill="#595959"/>
<defs>
<filter id="filter0_d_10_148" x="2" y="0" width="44" height="63" filterUnits="userSpaceOnUse" color-interpolation-filters="sRGB">
<feFlood flood-opacity="0" result="BackgroundImageFix"/>
<feColorMatrix in="SourceAlpha" type="matrix" values="0 0 0 0 0 0 0 0 0 0 0 0 0 0 0 0 0 0 127 0" result="hardAlpha"/>
<feOffset dy="2"/>
<feGaussianBlur stdDeviation="1"/>
<feComposite in2="hardAlpha" operator="out"/>
<feColorMatrix type="matrix" values="0 0 0 0 0 0 0 0 0 0 0 0 0 0 0 0 0 0 0.25 0"/>
<feBlend mode="normal" in2="BackgroundImageFix" result="effect1_dropShadow_10_148"/>
<feBlend mode="normal" in="SourceGraphic" in2="effect1_dropShadow_10_148" result="shape"/>
</filter>
<filter id="filter1_d_10_148" x="42" y="0" width="44" height="63" filterUnits="userSpaceOnUse" color-interpolation-filters="sRGB">
<feFlood flood-opacity="0" result="BackgroundImageFix"/>
<feColorMatrix in="SourceAlpha" type="matrix" values="0 0 0 0 0 0 0 0 0 0 0 0 0 0 0 0 0 0 127 0" result="hardAlpha"/>
<feOffset dy="2"/>
<feGaussianBlur stdDeviation="1"/>
<feComposite in2="hardAlpha" operator="out"/>
<feColorMatrix type="matrix" values="0 0 0 0 0 0 0 0 0 0 0 0 0 0 0 0 0 0 0.25 0"/>
<feBlend mode="normal" in2="BackgroundImageFix" result="effect1_dropShadow_10_148"/>
<feBlend mode="normal" in="SourceGraphic" in2="effect1_dropShadow_10_148" result="shape"/>
</filter>
</defs>
</svg>
