<svg width="486" height="383" viewBox="0 0 486 383" fill="none" xmlns="http://www.w3.org/2000/svg">
<rect width="460.845" height="76.8074" transform="matrix(0.707033 -0.707181 0.707033 0.707181 105.863 328.084)" fill="#CE62F4"/>
<rect width="460.845" height="76.8074" transform="matrix(0.707033 -0.707181 0.707033 0.707181 0 325.9)" fill="#9A1BD6"/>
<path d="M122.944 297.283L84.3934 258.723L107.513 235.599L112.975 241.062L97.4381 256.602L130.527 289.698L122.944 297.283ZM114.99 270.127C114.442 269.119 113.965 267.988 113.558 266.732C113.17 265.459 113.046 264.186 113.187 262.914C113.329 261.641 113.912 260.491 114.937 259.466L121.354 253.048L126.709 258.405L114.99 270.127ZM171.729 249.973C167.646 254.057 163.297 256.656 158.684 257.77C154.071 258.848 149.501 258.627 144.976 257.107C140.451 255.586 136.289 252.925 132.488 249.124C129.713 246.349 127.539 243.325 125.966 240.055C124.411 236.766 123.536 233.381 123.341 229.898C123.147 226.415 123.721 222.976 125.065 219.582C126.408 216.152 128.6 212.917 131.64 209.876C135.104 206.411 138.64 204.059 142.245 202.822C145.869 201.566 149.422 201.16 152.904 201.602C156.386 202.044 159.656 203.105 162.714 204.784C165.772 206.428 168.476 208.426 170.827 210.777C173.426 213.376 175.503 216.302 177.058 219.555C178.613 222.773 179.524 226.141 179.789 229.659C180.054 233.177 179.541 236.678 178.251 240.161C176.978 243.626 174.804 246.897 171.729 249.973ZM166.267 244.51C168.211 242.565 169.466 240.178 170.032 237.35C170.58 234.503 170.288 231.471 169.157 228.254C168.026 225.036 165.913 221.88 162.82 218.786C160.045 216.011 157.12 213.969 154.044 212.66C150.951 211.334 147.937 210.866 145.003 211.255C142.069 211.644 139.435 213.005 137.102 215.339C134.663 217.779 133.284 220.501 132.966 223.507C132.665 226.495 133.195 229.518 134.557 232.576C135.935 235.617 137.933 238.446 140.549 241.062C142.369 242.883 144.393 244.43 146.62 245.703C148.83 246.959 151.092 247.825 153.408 248.302C155.723 248.744 157.995 248.682 160.222 248.117C162.431 247.533 164.446 246.331 166.267 244.51ZM195.754 224.458L157.68 186.376C159.271 184.149 160.64 182.284 161.789 180.781C162.938 179.278 164.034 177.934 165.077 176.75C166.12 175.565 167.278 174.337 168.55 173.064C171.326 170.288 174.33 168.22 177.565 166.858C180.782 165.479 183.955 164.993 187.084 165.4C190.23 165.789 193.049 167.229 195.541 169.722C197.627 171.808 198.971 174.124 199.571 176.67C200.19 179.198 200.19 181.727 199.571 184.255L198.67 186.323L200.42 185.74C202.417 185.581 204.344 185.828 206.2 186.482C208.038 187.119 209.903 187.976 211.794 189.055C213.703 190.116 215.71 191.238 217.813 192.423C219.899 193.59 222.179 194.633 224.653 195.552L216.858 203.349C214.879 202.606 212.926 201.678 210.999 200.564C209.09 199.433 207.207 198.328 205.351 197.249C203.496 196.171 201.657 195.305 199.837 194.65C198.016 193.996 196.231 193.784 194.481 194.014C193.791 194.81 192.996 195.605 192.095 196.401C191.211 197.179 190.186 197.886 189.019 198.522C188.612 197.585 188.25 196.551 187.932 195.419C187.614 194.288 187.481 193.165 187.534 192.052C187.587 190.938 187.976 189.948 188.701 189.081C189.585 188.021 190.15 186.818 190.398 185.475C190.645 184.096 190.557 182.717 190.133 181.338C189.691 179.941 188.895 178.668 187.746 177.519C186.527 176.299 185.113 175.539 183.504 175.238C181.878 174.92 180.234 175.044 178.573 175.61C176.911 176.175 175.391 177.148 174.012 178.527C173.058 179.481 172.342 180.25 171.865 180.834C171.387 181.417 170.725 182.239 169.876 183.3L203.389 216.821L195.754 224.458ZM231.525 188.679L196.686 146.407L206.284 136.807L244.464 158.128L246.744 159.666L245.26 157.333L223.89 119.198L233.541 109.545L275.697 144.497L268.751 151.446L237.624 124.449L234.919 122.062L236.828 125.244L256.979 162.159L249.184 169.956L212.117 149.854L208.989 147.998L211.322 150.65L238.472 181.731L231.525 188.679ZM281.288 138.906L256.577 86.5039L264.001 79.0785L316.392 103.794L308.544 111.644L270.311 92.4973L267.925 90.9592L269.516 93.505L278.742 111.75L279.167 113.448L279.856 112.546L283.886 108.515C284.911 107.49 286.06 106.924 287.333 106.818C288.623 106.694 289.905 106.844 291.177 107.269C292.468 107.675 293.625 108.144 294.651 108.674L283.144 120.183L288.764 131.428L281.288 138.906Z" fill="black"/>
<path d="M311.246 223.559C306.88 227.926 302.285 230.755 297.459 232.045C292.634 233.336 287.914 233.283 283.301 231.886C278.687 230.454 274.516 227.873 270.786 224.142C268.029 221.384 265.917 218.335 264.45 214.993C262.965 211.634 262.196 208.16 262.143 204.571C262.108 200.965 262.841 197.384 264.344 193.831C265.828 190.26 268.17 186.874 271.37 183.674C272.854 182.189 274.507 180.819 276.328 179.563C278.148 178.308 280.208 177.168 282.505 176.142L285.475 182.931C283.46 184.028 281.816 185.035 280.543 185.955C279.288 186.856 278.051 187.917 276.832 189.137C274.728 191.241 273.296 193.486 272.536 195.873C271.794 198.242 271.599 200.629 271.953 203.033C272.289 205.42 273.067 207.736 274.286 209.981C275.488 212.209 277.008 214.242 278.847 216.081C280.667 217.902 282.7 219.422 284.945 220.642C287.19 221.862 289.514 222.648 291.918 223.002C294.304 223.338 296.681 223.135 299.05 222.392C301.436 221.632 303.681 220.2 305.785 218.096C307.004 216.876 308.065 215.515 308.966 214.012C309.868 212.509 310.663 210.812 311.352 208.92L318.14 211.784C317.398 214.153 316.434 216.337 315.25 218.335C314.066 220.332 312.731 222.074 311.246 223.559ZM317.504 238.622C316.903 239.223 316.16 239.789 315.276 240.319C314.41 240.867 313.367 241.38 312.148 241.857L310.186 237.985C311.087 237.543 311.838 237.11 312.439 236.686C313.058 236.279 313.633 235.811 314.163 235.28C314.781 234.662 315.17 234.043 315.329 233.424C315.506 232.788 315.4 232.275 315.011 231.886C314.481 231.356 313.721 231.285 312.731 231.674C311.777 232.063 310.61 232.823 309.231 233.955L305.785 228.067L309.072 224.142L310.928 227.166C312.218 226.335 313.668 225.822 315.276 225.627C316.903 225.451 318.299 225.946 319.466 227.113C320.526 228.173 321.074 229.393 321.109 230.772C321.145 232.151 320.818 233.539 320.128 234.936C319.457 236.315 318.582 237.543 317.504 238.622ZM321.033 212.497L296.322 160.095L303.746 152.67L356.137 177.386L348.289 185.235L310.057 166.088L307.67 164.55L309.261 167.096L318.488 185.341L318.912 187.039L319.601 186.137L323.632 182.106C324.657 181.081 325.806 180.515 327.078 180.409C328.369 180.285 329.65 180.435 330.923 180.86C332.213 181.266 333.371 181.735 334.396 182.265L322.889 193.775L328.51 205.019L321.033 212.497ZM292.876 158.239L288.58 161.898C286.636 159.847 285.664 157.744 285.664 155.587C285.682 153.412 286.318 151.68 287.573 150.389C288.474 149.487 289.447 148.904 290.489 148.639C291.532 148.338 292.522 148.126 293.459 148.002C294.148 147.878 294.767 147.755 295.315 147.631C295.863 147.507 296.305 147.277 296.641 146.941C297.1 146.482 297.25 145.89 297.091 145.165C296.932 144.44 296.535 143.688 295.898 142.911L300.087 139.357C301.501 140.913 302.394 142.424 302.765 143.892C303.136 145.359 303.163 146.676 302.845 147.843C302.527 149.01 302.032 149.929 301.36 150.601C300.299 151.662 299.239 152.316 298.178 152.564C297.135 152.793 296.181 152.952 295.315 153.041C294.643 153.112 294.069 153.209 293.591 153.333C293.114 153.421 292.699 153.642 292.345 153.996C291.974 154.367 291.771 154.924 291.736 155.666C291.683 156.391 292.063 157.249 292.876 158.239ZM379.93 155.073C375.847 159.157 371.498 161.756 366.885 162.87C362.272 163.948 357.702 163.727 353.177 162.207C348.652 160.687 344.49 158.026 340.689 154.225C337.914 151.449 335.74 148.426 334.167 145.155C332.612 141.867 331.737 138.481 331.542 134.998C331.348 131.515 331.922 128.077 333.266 124.682C334.609 121.252 336.801 118.017 339.841 114.976C343.305 111.511 346.841 109.16 350.446 107.922C354.07 106.667 357.623 106.26 361.105 106.702C364.587 107.144 367.857 108.205 370.915 109.884C373.973 111.529 376.677 113.526 379.028 115.878C381.627 118.477 383.703 121.403 385.259 124.656C386.814 127.873 387.725 131.241 387.99 134.76C388.255 138.278 387.742 141.778 386.452 145.261C385.179 148.726 383.005 151.997 379.93 155.073ZM374.468 149.61C376.412 147.666 377.667 145.279 378.233 142.45C378.781 139.604 378.489 136.572 377.358 133.354C376.227 130.136 374.114 126.981 371.021 123.887C368.246 121.111 365.321 119.069 362.245 117.761C359.152 116.435 356.138 115.966 353.204 116.355C350.27 116.744 347.636 118.105 345.303 120.439C342.864 122.879 341.485 125.602 341.167 128.607C340.866 131.595 341.396 134.618 342.757 137.677C344.136 140.718 346.134 143.546 348.75 146.163C350.57 147.984 352.594 149.531 354.821 150.804C357.031 152.059 359.293 152.925 361.609 153.403C363.924 153.845 366.196 153.783 368.423 153.217C370.632 152.634 372.647 151.431 374.468 149.61Z" fill="black"/>
<rect width="15.2367" height="79.9928" transform="matrix(0.707033 0.707181 -0.707033 0.707181 183.771 291.814)" fill="url(#paint0_linear_111_20)"/>
<rect width="15.2367" height="79.9928" transform="matrix(-0.707033 -0.707181 0.707033 -0.707181 32.8638 358.396)" fill="url(#paint1_linear_111_20)"/>
<rect width="15.2367" height="79.9928" transform="matrix(0.707033 0.707181 -0.707033 0.707181 348.31 22.0958)" fill="url(#paint2_linear_111_20)"/>
<rect width="15.2367" height="79.9928" transform="matrix(-0.707033 -0.707181 0.707033 -0.707181 406.886 90.964)" fill="url(#paint3_linear_111_20)"/>
<defs>
<linearGradient id="paint0_linear_111_20" x1="7.61836" y1="0" x2="7.61836" y2="79.9928" gradientUnits="userSpaceOnUse">
<stop stop-color="#CE62F4"/>
<stop offset="1" stop-color="#9A1BD6"/>
</linearGradient>
<linearGradient id="paint1_linear_111_20" x1="7.61836" y1="0" x2="7.61836" y2="79.9928" gradientUnits="userSpaceOnUse">
<stop stop-color="#CE62F4"/>
<stop offset="1" stop-color="#9A1BD6"/>
</linearGradient>
<linearGradient id="paint2_linear_111_20" x1="7.61836" y1="0" x2="7.61836" y2="79.9928" gradientUnits="userSpaceOnUse">
<stop stop-color="#CE62F4"/>
<stop offset="1" stop-color="#9A1BD6"/>
</linearGradient>
<linearGradient id="paint3_linear_111_20" x1="7.61836" y1="0" x2="7.61836" y2="79.9928" gradientUnits="userSpaceOnUse">
<stop stop-color="#CE62F4"/>
<stop offset="1" stop-color="#9A1BD6"/>
</linearGradient>
</defs>
</svg>
