<svg width="56" height="56" viewBox="0 0 56 56" fill="none" xmlns="http://www.w3.org/2000/svg">
<path d="M46.375 49C41.6306 49 36.9153 47.8333 32.2292 45.5C27.5431 43.1667 23.3333 40.1333 19.6 36.4C15.8667 32.6667 12.8333 28.4569 10.5 23.7708C8.16667 19.0847 7 14.3694 7 9.625C7 8.87499 7.25 8.24999 7.74999 7.74999C8.24999 7.25 8.87499 7 9.625 7H17.7917C18.321 7 18.7936 7.18472 19.2095 7.55417C19.6254 7.92361 19.8917 8.41944 20.0083 9.04167L21.5833 16.3917C21.6611 16.9361 21.6514 17.4319 21.5542 17.8792C21.4569 18.3264 21.2528 18.7056 20.9417 19.0167L15.1083 24.9083C17.2861 28.525 19.7264 31.675 22.4292 34.3583C25.1319 37.0417 28.1944 39.3167 31.6167 41.1833L37.1583 35.4667C37.5472 35.0389 37.9944 34.7375 38.5 34.5625C39.0056 34.3875 39.5111 34.3583 40.0167 34.475L46.9583 35.9917C47.5538 36.1229 48.0429 36.4182 48.4258 36.8776C48.8086 37.337 49 37.8778 49 38.5V46.375C49 47.125 48.75 47.75 48.25 48.25C47.75 48.75 47.125 49 46.375 49ZM13.3583 21.7L18.0833 16.9167L16.7417 10.5H10.5C10.5 12.0167 10.7333 13.6792 11.2 15.4875C11.6667 17.2958 12.3861 19.3667 13.3583 21.7ZM45.5 45.5V39.2583L39.4917 38.0333L34.8833 42.875C36.4778 43.6139 38.2083 44.2167 40.075 44.6833C41.9417 45.15 43.75 45.4222 45.5 45.5Z" fill="url(#paint0_linear_9_43)"/>
<defs>
<linearGradient id="paint0_linear_9_43" x1="28" y1="7" x2="28" y2="49" gradientUnits="userSpaceOnUse">
<stop stop-color="#CE62F4"/>
<stop offset="1" stop-color="#9A1BD6"/>
</linearGradient>
</defs>
</svg>
