<svg width="638" height="502" viewBox="0 0 638 502" fill="none" xmlns="http://www.w3.org/2000/svg">
<rect x="138.972" y="430.605" width="604.913" height="100.819" transform="rotate(-45 138.972 430.605)" fill="#CE62F4"/>
<rect y="427.738" width="604.913" height="100.819" transform="rotate(-45 0 427.738)" fill="#9A1BD6"/>
<path d="M163.237 386.492L111.83 335.086L142.66 304.256L149.943 311.539L129.225 332.257L173.348 376.381L163.237 386.492ZM152.63 350.288C151.899 348.945 151.263 347.436 150.721 345.763C150.202 344.066 150.037 342.369 150.226 340.672C150.414 338.975 151.192 337.443 152.559 336.075L161.115 327.519L168.257 334.661L152.63 350.288ZM228.289 323.419C222.845 328.864 217.046 332.329 210.894 333.814C204.743 335.252 198.65 334.957 192.616 332.93C186.582 330.903 181.031 327.356 175.963 322.288C172.263 318.587 169.364 314.557 167.266 310.196C165.192 305.812 164.025 301.299 163.766 296.655C163.506 292.012 164.273 287.428 166.064 282.902C167.855 278.33 170.778 274.016 174.832 269.962C179.452 265.342 184.166 262.207 188.974 260.558C193.806 258.884 198.544 258.342 203.187 258.931C207.83 259.52 212.191 260.935 216.268 263.174C220.346 265.366 223.952 268.029 227.087 271.164C230.552 274.629 233.321 278.53 235.396 282.867C237.47 287.157 238.684 291.647 239.037 296.337C239.391 301.028 238.707 305.695 236.987 310.338C235.29 314.958 232.39 319.318 228.289 323.419ZM221.006 316.136C223.599 313.543 225.272 310.361 226.026 306.59C226.757 302.795 226.368 298.753 224.86 294.463C223.351 290.174 220.535 285.966 216.41 281.841C212.709 278.141 208.808 275.419 204.707 273.674C200.582 271.907 196.564 271.282 192.651 271.801C188.738 272.319 185.226 274.134 182.115 277.245C178.862 280.498 177.024 284.128 176.6 288.135C176.199 292.118 176.906 296.149 178.721 300.226C180.56 304.28 183.223 308.052 186.711 311.54C189.139 313.968 191.838 316.03 194.808 317.727C197.754 319.401 200.771 320.556 203.859 321.192C206.946 321.781 209.975 321.699 212.945 320.944C215.891 320.167 218.578 318.564 221.006 316.136ZM260.326 289.403L209.555 238.633C211.677 235.663 213.503 233.176 215.035 231.173C216.567 229.169 218.029 227.378 219.419 225.799C220.81 224.22 222.354 222.582 224.051 220.884C227.752 217.184 231.758 214.426 236.072 212.611C240.362 210.773 244.592 210.125 248.764 210.667C252.96 211.185 256.719 213.106 260.043 216.43C262.824 219.211 264.615 222.299 265.417 225.693C266.242 229.063 266.242 232.434 265.417 235.804L264.215 238.562L266.548 237.784C269.212 237.572 271.781 237.902 274.256 238.774C276.707 239.623 279.194 240.766 281.716 242.204C284.261 243.618 286.936 245.115 289.741 246.694C292.523 248.249 295.563 249.64 298.863 250.866L288.468 261.26C285.829 260.27 283.224 259.033 280.655 257.548C278.109 256.039 275.599 254.566 273.124 253.129C270.649 251.691 268.198 250.536 265.77 249.664C263.343 248.792 260.962 248.509 258.629 248.815C257.709 249.876 256.649 250.937 255.447 251.997C254.268 253.034 252.901 253.977 251.345 254.826C250.803 253.576 250.32 252.198 249.896 250.689C249.472 249.181 249.295 247.684 249.365 246.199C249.436 244.714 249.955 243.394 250.921 242.239C252.1 240.825 252.854 239.222 253.184 237.431C253.514 235.592 253.396 233.754 252.83 231.915C252.241 230.053 251.18 228.356 249.648 226.824C248.022 225.198 246.136 224.184 243.991 223.784C241.823 223.359 239.631 223.524 237.415 224.279C235.2 225.033 233.173 226.329 231.334 228.168C230.061 229.44 229.107 230.466 228.47 231.244C227.834 232.021 226.95 233.117 225.819 234.532L270.508 279.221L260.326 289.403ZM308.027 241.702L261.57 185.346L274.368 172.547L325.28 200.973L328.321 203.023L326.341 199.912L297.844 149.071L310.714 136.202L366.929 182.8L357.665 192.063L316.158 156.071L312.552 152.89L315.098 157.132L341.968 206.347L331.573 216.741L282.146 189.942L277.975 187.467L281.086 191.003L317.29 232.439L308.027 241.702ZM374.383 175.346L341.432 105.484L351.331 95.584L421.193 128.535L410.728 139L359.746 113.474L356.564 111.423L358.685 114.817L370.989 139.142L371.555 141.405L372.474 140.202L377.848 134.828C379.215 133.461 380.747 132.707 382.444 132.566C384.165 132.401 385.874 132.601 387.571 133.167C389.291 133.709 390.835 134.333 392.202 135.041L376.858 150.385L384.353 165.375L374.383 175.346Z" fill="black"/>
<path d="M381.975 305.903C376.153 311.725 370.025 315.496 363.59 317.216C357.156 318.937 350.863 318.866 344.711 317.004C338.559 315.095 332.996 311.654 328.023 306.681C324.346 303.004 321.529 298.938 319.573 294.483C317.593 290.005 316.568 285.373 316.497 280.588C316.45 275.78 317.428 271.007 319.432 266.269C321.412 261.508 324.535 256.994 328.801 252.728C330.781 250.748 332.984 248.922 335.412 247.248C337.84 245.575 340.586 244.054 343.65 242.687L347.61 251.738C344.923 253.2 342.731 254.543 341.034 255.769C339.36 256.971 337.71 258.385 336.084 260.011C333.279 262.816 331.37 265.81 330.356 268.992C329.366 272.15 329.107 275.332 329.579 278.538C330.026 281.72 331.064 284.807 332.69 287.801C334.293 290.771 336.32 293.481 338.771 295.933C341.199 298.36 343.909 300.387 346.903 302.014C349.896 303.64 352.996 304.689 356.201 305.16C359.383 305.608 362.553 305.337 365.712 304.347C368.894 303.334 371.887 301.424 374.692 298.62C376.318 296.993 377.733 295.178 378.935 293.175C380.137 291.171 381.197 288.909 382.117 286.387L391.168 290.205C390.178 293.363 388.893 296.274 387.314 298.938C385.735 301.601 383.955 303.923 381.975 305.903ZM390.319 325.985C389.518 326.786 388.528 327.54 387.349 328.247C386.194 328.978 384.804 329.662 383.177 330.298L380.561 325.136C381.763 324.547 382.765 323.969 383.566 323.404C384.391 322.861 385.157 322.237 385.864 321.53C386.689 320.705 387.208 319.88 387.42 319.055C387.656 318.206 387.514 317.523 386.996 317.004C386.289 316.297 385.275 316.203 383.955 316.721C382.682 317.24 381.127 318.254 379.288 319.762L374.692 311.913L379.076 306.681L381.551 310.711C383.272 309.603 385.204 308.92 387.349 308.66C389.518 308.425 391.38 309.085 392.935 310.64C394.35 312.055 395.08 313.681 395.127 315.519C395.175 317.358 394.738 319.208 393.819 321.07C392.924 322.909 391.757 324.547 390.319 325.985ZM395.026 291.155L362.075 221.293L371.974 211.393L441.836 244.345L431.371 254.81L380.389 229.283L377.207 227.233L379.328 230.627L391.632 254.951L392.197 257.214L393.117 256.012L398.491 250.638C399.858 249.271 401.39 248.517 403.087 248.375C404.807 248.21 406.516 248.411 408.213 248.976C409.934 249.518 411.478 250.143 412.845 250.85L397.501 266.194L404.996 281.185L395.026 291.155ZM357.478 218.818L351.751 223.697C349.158 220.963 347.862 218.158 347.862 215.283C347.885 212.383 348.734 210.074 350.407 208.353C351.609 207.151 352.906 206.373 354.296 206.019C355.687 205.619 357.007 205.336 358.256 205.171C359.175 205.006 360 204.841 360.731 204.676C361.462 204.511 362.051 204.205 362.499 203.757C363.112 203.144 363.312 202.354 363.1 201.388C362.888 200.422 362.357 199.42 361.509 198.383L367.095 193.645C368.981 195.719 370.171 197.735 370.666 199.691C371.161 201.647 371.196 203.403 370.772 204.959C370.348 206.514 369.688 207.74 368.792 208.636C367.378 210.05 365.964 210.922 364.549 211.252C363.159 211.558 361.886 211.771 360.731 211.888C359.835 211.983 359.069 212.112 358.433 212.277C357.797 212.395 357.243 212.69 356.771 213.161C356.276 213.656 356.005 214.399 355.958 215.389C355.887 216.355 356.394 217.498 357.478 218.818ZM473.563 214.598C468.118 220.043 462.32 223.508 456.168 224.993C450.016 226.43 443.923 226.136 437.889 224.109C431.855 222.082 426.304 218.534 421.237 213.467C417.536 209.766 414.637 205.736 412.539 201.375C410.465 196.991 409.298 192.477 409.039 187.834C408.78 183.191 409.546 178.606 411.337 174.081C413.129 169.508 416.051 165.195 420.105 161.141C424.725 156.521 429.439 153.386 434.248 151.736C439.079 150.063 443.817 149.521 448.46 150.11C453.104 150.699 457.464 152.113 461.542 154.353C465.619 156.545 469.226 159.208 472.361 162.343C475.825 165.808 478.595 169.709 480.669 174.046C482.743 178.335 483.957 182.825 484.311 187.516C484.664 192.206 483.981 196.873 482.26 201.517C480.563 206.136 477.664 210.497 473.563 214.598ZM466.279 207.315C468.872 204.722 470.546 201.54 471.3 197.769C472.031 193.974 471.642 189.932 470.133 185.642C468.625 181.352 465.808 177.145 461.683 173.02C457.983 169.32 454.082 166.597 449.981 164.853C445.856 163.085 441.837 162.461 437.924 162.979C434.012 163.498 430.5 165.313 427.389 168.424C424.136 171.677 422.297 175.307 421.873 179.313C421.472 183.297 422.18 187.327 423.994 191.405C425.833 195.459 428.496 199.23 431.985 202.719C434.413 205.146 437.111 207.209 440.081 208.906C443.027 210.579 446.044 211.734 449.132 212.371C452.22 212.96 455.249 212.877 458.218 212.123C461.165 211.345 463.852 209.743 466.279 207.315Z" fill="black"/>
<rect x="241.246" y="383" width="20" height="105" transform="rotate(45 241.246 383)" fill="url(#paint0_linear_9_59)"/>
<rect x="43.1421" y="470.388" width="20" height="105" transform="rotate(-135 43.1421 470.388)" fill="url(#paint1_linear_9_59)"/>
<rect x="457.246" y="29" width="20" height="105" transform="rotate(45 457.246 29)" fill="url(#paint2_linear_9_59)"/>
<rect x="534.142" y="119.388" width="20" height="105" transform="rotate(-135 534.142 119.388)" fill="url(#paint3_linear_9_59)"/>
<defs>
<linearGradient id="paint0_linear_9_59" x1="251.246" y1="383" x2="251.246" y2="488" gradientUnits="userSpaceOnUse">
<stop stop-color="#CE62F4"/>
<stop offset="1" stop-color="#9A1BD6"/>
</linearGradient>
<linearGradient id="paint1_linear_9_59" x1="53.1421" y1="470.388" x2="53.1421" y2="575.388" gradientUnits="userSpaceOnUse">
<stop stop-color="#CE62F4"/>
<stop offset="1" stop-color="#9A1BD6"/>
</linearGradient>
<linearGradient id="paint2_linear_9_59" x1="467.246" y1="29" x2="467.246" y2="134" gradientUnits="userSpaceOnUse">
<stop stop-color="#CE62F4"/>
<stop offset="1" stop-color="#9A1BD6"/>
</linearGradient>
<linearGradient id="paint3_linear_9_59" x1="544.142" y1="119.388" x2="544.142" y2="224.388" gradientUnits="userSpaceOnUse">
<stop stop-color="#CE62F4"/>
<stop offset="1" stop-color="#9A1BD6"/>
</linearGradient>
</defs>
</svg>
