<svg width="61" height="61" viewBox="0 0 61 61" fill="none" xmlns="http://www.w3.org/2000/svg">
<path d="M8.89575 50.8334C7.87909 50.8334 6.9895 50.4522 6.227 49.6897C5.4645 48.9272 5.08325 48.0376 5.08325 47.0209V13.9792C5.08325 12.9626 5.4645 12.073 6.227 11.3105C6.9895 10.548 7.87909 10.1667 8.89575 10.1667H52.1041C53.1208 10.1667 54.0103 10.548 54.7728 11.3105C55.5353 12.073 55.9166 12.9626 55.9166 13.9792V47.0209C55.9166 48.0376 55.5353 48.9272 54.7728 49.6897C54.0103 50.4522 53.1208 50.8334 52.1041 50.8334H8.89575ZM52.1041 17.474L31.5166 30.9449C31.3471 31.0296 31.1883 31.1037 31.04 31.1673C30.8918 31.2308 30.7117 31.2626 30.4999 31.2626C30.2881 31.2626 30.1081 31.2308 29.9598 31.1673C29.8116 31.1037 29.6527 31.0296 29.4833 30.9449L8.89575 17.474V47.0209H52.1041V17.474ZM30.4999 27.8313L51.8499 13.9792H9.21346L30.4999 27.8313ZM8.89575 17.9188V15.4206V15.4671V13.9792V15.4407V15.3828V17.9188Z" fill="url(#paint0_linear_9_45)"/>
<defs>
<linearGradient id="paint0_linear_9_45" x1="30.4999" y1="10.1667" x2="30.4999" y2="50.8334" gradientUnits="userSpaceOnUse">
<stop stop-color="#CE62F4"/>
<stop offset="1" stop-color="#9A1BD6"/>
</linearGradient>
</defs>
</svg>
