<svg width="691" height="254" viewBox="0 0 691 254" fill="none" xmlns="http://www.w3.org/2000/svg">
<rect x="86" y="123" width="604.913" height="100.819" fill="#CE62F4"/>
<rect x="191.981" y="161.658" width="20" height="105" transform="rotate(90 191.981 161.658)" fill="url(#paint0_linear_111_47)"/>
<rect x="585.491" y="182.365" width="20" height="105" transform="rotate(-90 585.491 182.365)" fill="url(#paint1_linear_111_47)"/>
<rect y="22" width="604.913" height="100.819" fill="#9A1BD6"/>
<rect x="0.770508" y="82.6642" width="20" height="105" transform="rotate(-90 0.770508 82.6642)" fill="url(#paint2_linear_111_47)"/>
<rect x="605.695" y="63.3712" width="20" height="105" transform="rotate(90 605.695 63.3712)" fill="url(#paint3_linear_111_47)"/>
<path d="M122.3 108.001L122.3 35.3012L165.9 35.3012L165.9 45.6012L136.6 45.6012L136.6 108.001L122.3 108.001ZM140.4 74.9012C140.833 73.4345 141.45 71.9178 142.25 70.3512C143.083 68.7845 144.167 67.4678 145.5 66.4012C146.833 65.3345 148.467 64.8012 150.4 64.8012L162.5 64.8012L162.5 74.9012L140.4 74.9012ZM212.898 109.401C205.198 109.401 198.648 107.751 193.248 104.451C187.882 101.118 183.782 96.6012 180.948 90.9012C178.115 85.2012 176.698 78.7678 176.698 71.6012C176.698 66.3678 177.498 61.4678 179.098 56.9012C180.732 52.3345 183.098 48.3178 186.198 44.8512C189.298 41.3845 193.082 38.6845 197.548 36.7512C202.048 34.7845 207.165 33.8012 212.898 33.8012C219.432 33.8012 224.982 34.9178 229.548 37.1512C234.148 39.3845 237.882 42.3512 240.748 46.0512C243.615 49.7512 245.698 53.8345 246.998 58.3012C248.332 62.7345 248.998 67.1678 248.998 71.6012C248.998 76.5012 248.198 81.2178 246.598 85.7512C245.032 90.2512 242.715 94.2845 239.648 97.8512C236.582 101.418 232.798 104.234 228.298 106.301C223.832 108.368 218.698 109.401 212.898 109.401ZM212.898 99.1012C216.565 99.1012 219.998 98.0345 223.198 95.9012C226.398 93.7345 228.982 90.6012 230.948 86.5012C232.915 82.4012 233.898 77.4345 233.898 71.6012C233.898 66.3678 233.065 61.6845 231.398 57.5512C229.732 53.3845 227.332 50.1012 224.198 47.7012C221.065 45.3011 217.298 44.1011 212.898 44.1011C208.298 44.1011 204.432 45.3678 201.298 47.9012C198.198 50.4345 195.848 53.7845 194.248 57.9512C192.682 62.1178 191.898 66.6678 191.898 71.6012C191.898 75.0345 192.348 78.4012 193.248 81.7012C194.148 84.9678 195.465 87.9178 197.198 90.5512C198.965 93.1512 201.165 95.2345 203.798 96.8012C206.432 98.3345 209.465 99.1012 212.898 99.1012ZM259.605 108.001L259.605 36.2011C263.205 35.6011 266.255 35.1345 268.755 34.8011C271.255 34.4678 273.555 34.2345 275.655 34.1012C277.755 33.9678 280.005 33.9011 282.405 33.9011C287.638 33.9011 292.421 34.7845 296.755 36.5512C301.088 38.2845 304.538 40.8178 307.105 44.1511C309.705 47.4845 311.005 51.5011 311.005 56.2012C311.005 60.1345 310.088 63.5845 308.255 66.5511C306.455 69.5178 304.071 71.9012 301.105 73.7011L298.305 74.8012L300.505 75.9012C302.538 77.6345 304.121 79.6845 305.255 82.0511C306.388 84.3845 307.338 86.9512 308.105 89.7512C308.905 92.5512 309.738 95.5012 310.605 98.6012C311.471 101.668 312.638 104.801 314.105 108.001L299.405 108.001C298.238 105.434 297.271 102.718 296.505 99.8512C295.771 96.9845 295.038 94.1678 294.305 91.4012C293.571 88.6345 292.655 86.0845 291.555 83.7512C290.455 81.4178 288.971 79.5345 287.105 78.1011C285.705 78.2012 284.205 78.2012 282.605 78.1012C281.038 78.0012 279.405 77.7012 277.705 77.2011C278.205 75.9345 278.838 74.6178 279.605 73.2512C280.371 71.8845 281.305 70.7012 282.405 69.7012C283.505 68.7011 284.805 68.1345 286.305 68.0012C288.138 67.8345 289.805 67.2345 291.305 66.2012C292.838 65.1345 294.055 63.7512 294.955 62.0512C295.855 60.3178 296.305 58.3678 296.305 56.2012C296.305 53.9012 295.688 51.8512 294.455 50.0512C293.221 48.2178 291.555 46.7845 289.455 45.7512C287.355 44.7178 285.005 44.2012 282.405 44.2012C280.605 44.2012 279.205 44.2512 278.205 44.3512C277.205 44.4511 275.805 44.6011 274.005 44.8012L274.005 108.001L259.605 108.001ZM327.064 108.001L334.064 35.3011L352.164 35.3011L368.064 91.4011L368.764 95.0011L369.564 91.4011L385.364 35.3011L403.564 35.3011L410.364 108.001L397.264 108.001L393.364 53.2011L393.064 48.4011L391.864 53.2011L376.064 107.001L361.364 107.001L345.364 53.1011L344.164 48.4011L343.864 53.1011L340.164 108.001L327.064 108.001ZM420.906 108.001L447.006 35.3011L461.006 35.3011L487.106 108.001L472.306 108.001L454.306 53.9011L453.506 50.2011L452.606 54.1011L444.106 80.0011L442.906 82.0011L444.406 81.8011L452.006 81.8011C453.94 81.8011 455.556 82.3511 456.856 83.4511C458.19 84.5511 459.256 85.9011 460.056 87.5011C460.89 89.1011 461.54 90.6345 462.006 92.1011L440.306 92.1011L435.006 108.001L420.906 108.001Z" fill="black"/>
<path d="M332.5 219.2C324.267 219.2 317.267 217.533 311.5 214.2C305.733 210.867 301.333 206.367 298.3 200.7C295.3 195 293.8 188.633 293.8 181.6C293.8 176.4 294.683 171.533 296.45 167C298.217 162.433 300.767 158.433 304.1 155C307.467 151.567 311.533 148.883 316.3 146.95C321.067 144.983 326.467 144 332.5 144C335.3 144 338.15 144.267 341.05 144.8C343.95 145.333 346.967 146.2 350.1 147.4L346.5 156.6C343.567 155.733 341.067 155.133 339 154.8C336.967 154.467 334.8 154.3 332.5 154.3C328.533 154.3 325.067 155.067 322.1 156.6C319.167 158.133 316.733 160.2 314.8 162.8C312.867 165.367 311.417 168.283 310.45 171.55C309.483 174.783 309 178.133 309 181.6C309 185.033 309.483 188.383 310.45 191.65C311.417 194.917 312.867 197.85 314.8 200.45C316.733 203.017 319.167 205.067 322.1 206.6C325.067 208.133 328.533 208.9 332.5 208.9C334.8 208.9 337.083 208.617 339.35 208.05C341.617 207.483 343.967 206.633 346.4 205.5L350.1 214.6C347.167 216.133 344.2 217.283 341.2 218.05C338.2 218.817 335.3 219.2 332.5 219.2ZM324.2 239.3C323.067 239.3 321.833 239.133 320.5 238.8C319.167 238.5 317.7 238 316.1 237.3L317.9 231.8C319.167 232.233 320.283 232.533 321.25 232.7C322.217 232.9 323.2 233 324.2 233C325.367 233 326.317 232.783 327.05 232.35C327.817 231.917 328.2 231.333 328.2 230.6C328.2 229.6 327.55 228.817 326.25 228.25C324.983 227.717 323.167 227.333 320.8 227.1L323.1 218.3L329.9 217.7L328.8 222.3C330.8 222.733 332.65 223.617 334.35 224.95C336.05 226.317 336.9 228.1 336.9 230.3C336.9 232.3 336.267 233.967 335 235.3C333.733 236.633 332.117 237.633 330.15 238.3C328.217 238.967 326.233 239.3 324.2 239.3ZM352.156 218L378.256 145.3L392.256 145.3L418.356 218L403.556 218L385.556 163.9L384.756 160.2L383.856 164.1L375.356 190L374.156 192L375.656 191.8L383.256 191.8C385.19 191.8 386.806 192.35 388.106 193.45C389.44 194.55 390.506 195.9 391.306 197.5C392.14 199.1 392.79 200.633 393.256 202.1L371.556 202.1L366.256 218L352.156 218ZM376.756 140.3L369.256 139.7C369.356 135.933 370.423 133.033 372.456 131C374.523 128.967 376.756 127.933 379.156 127.9C380.856 127.9 382.323 128.267 383.556 129C384.823 129.7 385.956 130.433 386.956 131.2C387.723 131.733 388.423 132.2 389.056 132.6C389.69 133 390.323 133.2 390.956 133.2C391.823 133.2 392.523 132.783 393.056 131.95C393.59 131.117 393.923 130.033 394.056 128.7L401.356 129.3C401.223 132.1 400.64 134.367 399.606 136.1C398.573 137.833 397.356 139.1 395.956 139.9C394.556 140.7 393.223 141.1 391.956 141.1C389.956 141.1 388.34 140.717 387.106 139.95C385.906 139.183 384.856 138.433 383.956 137.7C383.256 137.133 382.623 136.683 382.056 136.35C381.523 135.983 380.923 135.8 380.256 135.8C379.556 135.8 378.84 136.133 378.106 136.8C377.373 137.433 376.923 138.6 376.756 140.3ZM461.824 219.4C454.124 219.4 447.574 217.75 442.174 214.45C436.808 211.117 432.708 206.6 429.874 200.9C427.041 195.2 425.624 188.767 425.624 181.6C425.624 176.367 426.424 171.467 428.024 166.9C429.658 162.333 432.024 158.317 435.124 154.85C438.224 151.383 442.008 148.683 446.474 146.75C450.974 144.783 456.091 143.8 461.824 143.8C468.358 143.8 473.908 144.917 478.474 147.15C483.074 149.383 486.808 152.35 489.674 156.05C492.541 159.75 494.624 163.833 495.924 168.3C497.258 172.733 497.924 177.167 497.924 181.6C497.924 186.5 497.124 191.217 495.524 195.75C493.958 200.25 491.641 204.283 488.574 207.85C485.508 211.417 481.724 214.233 477.224 216.3C472.758 218.367 467.624 219.4 461.824 219.4ZM461.824 209.1C465.491 209.1 468.924 208.033 472.124 205.9C475.324 203.733 477.908 200.6 479.874 196.5C481.841 192.4 482.824 187.433 482.824 181.6C482.824 176.367 481.991 171.683 480.324 167.55C478.658 163.383 476.258 160.1 473.124 157.7C469.991 155.3 466.224 154.1 461.824 154.1C457.224 154.1 453.358 155.367 450.224 157.9C447.124 160.433 444.774 163.783 443.174 167.95C441.608 172.117 440.824 176.667 440.824 181.6C440.824 185.033 441.274 188.4 442.174 191.7C443.074 194.967 444.391 197.917 446.124 200.55C447.891 203.15 450.091 205.233 452.724 206.8C455.358 208.333 458.391 209.1 461.824 209.1Z" fill="black"/>
<defs>
<linearGradient id="paint0_linear_111_47" x1="201.981" y1="161.658" x2="201.981" y2="266.658" gradientUnits="userSpaceOnUse">
<stop stop-color="#CE62F4"/>
<stop offset="1" stop-color="#9A1BD6"/>
</linearGradient>
<linearGradient id="paint1_linear_111_47" x1="595.491" y1="182.365" x2="595.491" y2="287.365" gradientUnits="userSpaceOnUse">
<stop stop-color="#CE62F4"/>
<stop offset="1" stop-color="#9A1BD6"/>
</linearGradient>
<linearGradient id="paint2_linear_111_47" x1="10.7705" y1="82.6642" x2="10.7705" y2="187.664" gradientUnits="userSpaceOnUse">
<stop stop-color="#CE62F4"/>
<stop offset="1" stop-color="#9A1BD6"/>
</linearGradient>
<linearGradient id="paint3_linear_111_47" x1="615.695" y1="63.3712" x2="615.695" y2="168.371" gradientUnits="userSpaceOnUse">
<stop stop-color="#CE62F4"/>
<stop offset="1" stop-color="#9A1BD6"/>
</linearGradient>
</defs>
</svg>
